<svg xmlns="http://www.w3.org/2000/svg" viewBox="0 0 444.51 445.62"><defs><style>.cls-1,.cls-2{fill:#e0e0e0;}.cls-2,.cls-3{fill-rule:evenodd;}.cls-3,.cls-4{fill:#ebebeb;}.cls-5{fill:#f5f5f5;}.cls-6{fill:#2d2f31;}.cls-7{fill:#ffbe9d;}.cls-8{fill:#eb996e;}.cls-9{fill:#0af;}.cls-10,.cls-11{opacity:0.4;}.cls-10,.cls-16,.cls-18,.cls-21{isolation:isolate;}.cls-12{fill:#fafafa;}.cls-13,.cls-16{fill:#fff;}.cls-14{fill:#455a64;}.cls-15,.cls-16{opacity:0.6;}.cls-17,.cls-18{opacity:0.3;}.cls-19{fill:#a6afb4;}.cls-20,.cls-21{opacity:0.2;}</style></defs><title>Ilustracion_2</title><g id="Capa_2" data-name="Capa 2"><g id="Capa_1-2" data-name="Capa 1"><path class="cls-1" d="M333.09,219.78a8.9,8.9,0,0,1-2.58,1.33,11.66,11.66,0,0,1-7.86-.1,11.87,11.87,0,0,1-7.53-8.67,11.13,11.13,0,0,1-.24-3.45,11.49,11.49,0,0,1,.81-3.52,12,12,0,0,1,22.37.1,11.85,11.85,0,0,1,.73,5.47,11.7,11.7,0,0,1-3.37,7.11,8.83,8.83,0,0,1-2.33,1.73,25.72,25.72,0,0,0,2.15-1.89,11.63,11.63,0,0,0,3.08-7,11.33,11.33,0,0,0-.77-5.22,11.52,11.52,0,0,0-3.62-4.82,10.88,10.88,0,0,0-2.85-1.62,10.66,10.66,0,0,0-3.34-.75,11.38,11.38,0,0,0-11.43,7.13,11.54,11.54,0,0,0-.58,6.6,11.52,11.52,0,0,0,7.09,8.36,11.65,11.65,0,0,0,7.62.29A23.1,23.1,0,0,0,333.09,219.78Z"/><path class="cls-1" d="M335.24,235.33l.3.27.9.87,3.52,3.47h-.13l9.24-5.85-.07.2c-.67-1.88-1.41-4-2.2-6.23V228l.08-.09a25.92,25.92,0,0,0,4.09-5.77L351,222h6.75l-.24.18c.77-3.35,1.59-6.92,2.44-10.66l.14.3-5.95-2.86-.15-.07v-.17a26.78,26.78,0,0,0-1.17-7l-.05-.17.12-.12c1.46-1.44,3.06-3,4.69-4.66v.38l-5.92-9.23.37.13-6.23,2.18-.19.06-.14-.13a26.58,26.58,0,0,0-5.73-4.09l-.18-.09v-6.81l.26.33L329.24,177l.38-.18-2.88,6-.08.18h-.21a26.31,26.31,0,0,0-6.93,1.15l-.34-.09-.07-.07-.15-.15-.29-.3-.58-.59-1.17-1.17-2.32-2.34.42,0-9.28,5.79.14-.4q1.1,3.15,2.17,6.24l.07.19-.14.15a25.77,25.77,0,0,0-4.09,5.73l-.1.17H297l.31-.25q-1.26,5.43-2.47,10.65l-.17-.35,5.95,2.88.16.08v.18a26.42,26.42,0,0,0,1.15,7l.05.17-.13.12-4.7,4.64v-.35l5.77,9.29-.3-.1,6.24-2.16.14-.05.11.1a26.87,26.87,0,0,0,5.74,4.12l.12.06v.14c0,2.4,0,4.56,0,6.6l-.16-.19,10.64,2.51-.17.08,2.92-5.93v-.06h.06a28,28,0,0,0,5.32-.66l1.29-.31.43-.09-.42.15c-.28.09-.7.22-1.28.36a26.67,26.67,0,0,1-5.33.77l.09-.07-2.83,6-.06.11h-.11l-10.67-2.41h-.15v-6.77l.11.2a27.09,27.09,0,0,1-5.86-4.16l.24,0-6.23,2.19-.19.07-.11-.17-5.81-9.27-.12-.19.16-.16,4.68-4.65-.07.29a27.28,27.28,0,0,1-1.19-7.11l.17.26-6-2.86L294,208l0-.24,2.49-10.89.05-.25h6.87l-.29.17a27.1,27.1,0,0,1,4.19-5.88l-.07.34q-1.08-3.09-2.18-6.24l-.09-.25.23-.14,9.27-5.79.23-.15.19.19,2.32,2.34,1.16,1.18.59.59.29.3.15.14.07.08c-.68-.17-.19-.05-.34-.09a26.85,26.85,0,0,1,7.11-1.18l-.29.19,2.88-6,.11-.24.26.06,10.65,2.46.26.06v6.88l-.17-.29a27.29,27.29,0,0,1,5.87,4.19l-.32-.07,6.24-2.16.23-.09.14.22,5.78,9.28.12.2-.17.17c-1.63,1.62-3.24,3.2-4.7,4.64l.08-.29a27.68,27.68,0,0,1,1.17,7.11l-.16-.24,5.95,2.89.19.09-.05.2c-.87,3.74-1.71,7.3-2.49,10.65v.19h-6.8l.19-.12a27,27,0,0,1-4.19,5.83v-.2c.78,2.25,1.5,4.36,2.15,6.25l.05.13-.12.07-9.31,5.74h-.07l-.06-.06-3.41-3.52-.87-.92A2.39,2.39,0,0,1,335.24,235.33Z"/><path class="cls-2" d="M357,156.21a38.16,38.16,0,0,1-9.94,1.66L343,166.28l-15.06-3.48v-9.35a37.72,37.72,0,0,1-8.21-5.85l-8.82,3.08-8.18-13.12,6.63-6.57a37.81,37.81,0,0,1-1.65-10L299.27,117l3.53-15.09h9.34A37.77,37.77,0,0,1,318,93.68l-3.08-8.79L328,76.71l6.57,6.63a37.73,37.73,0,0,1,9.94-1.65l4.07-8.42,15.06,3.49V86.1a37.57,37.57,0,0,1,8.2,5.85l8.82-3.07L388.89,102l-6.65,6.62a37.21,37.21,0,0,1,1.66,9.94l8.41,4.07-3.48,15.06h-9.34a38,38,0,0,1-5.86,8.2l3.08,8.82-13.15,8.19L357,156.25Zm-3-22a16.55,16.55,0,1,0-12.53,2.1A16.61,16.61,0,0,0,354,134.24Z"/><path class="cls-3" d="M392.47,206a20.69,20.69,0,0,1-5.29.88L385,211.38l-8-1.85v-5a20.41,20.41,0,0,1-4.37-3.11L368,203.05l-4.35-7,3.53-3.49a19.86,19.86,0,0,1-.88-5.29l-4.48-2.17,1.85-8h5a20.39,20.39,0,0,1,3.12-4.36l-1.64-4.69,7-4.36,3.5,3.53a20.27,20.27,0,0,1,5.29-.88l2.16-4.48,8,1.86v5a19.67,19.67,0,0,1,4.36,3.11l4.7-1.63,4.35,7-3.53,3.5a19.72,19.72,0,0,1,.88,5.29l4.48,2.16-1.85,8h-5a20.35,20.35,0,0,1-3.12,4.37l1.64,4.69-7,4.36-3.5-3.53Zm-1.59-11.69a8.91,8.91,0,0,0,3.38-3.86,8.85,8.85,0,0,0-1.61-9.68,8.83,8.83,0,0,0-13.93,10.72,8.85,8.85,0,0,0,12.16,2.82Z"/><path class="cls-1" d="M85.6,117.54c.11.1-4.58,4.91-10.47,10.73s-10.74,10.46-10.84,10.36,4.59-4.91,10.48-10.73S85.5,117.44,85.6,117.54Z"/><path class="cls-1" d="M85.65,138.58c-.1.1-5-4.52-10.88-10.31S64.14,117.7,64.24,117.59s5,4.51,10.89,10.31S85.76,138.47,85.65,138.58Z"/><path class="cls-1" d="M106.81,250.63c0,.14-6-.38-13.36-1.15S80.13,248,80.14,247.81s6,.37,13.36,1.15S106.83,250.48,106.81,250.63Z"/><path class="cls-1" d="M105.75,260.67c0,.14-6-.37-13.36-1.15S79.06,258,79.08,257.86s6,.37,13.36,1.14S105.77,260.53,105.75,260.67Z"/><path class="cls-4" d="M33.64,228.58s-7.92-.57-7.19,17.2S29,273,29,273s-.23,3.94-3.28,3.17-8.79-4.61-11.63-1.74-1.89,7.53,2,12.9,12,17.44,12.74,18.53,1,3.09-1.16,2.9S10.9,303.62,9,310.69s11.39,20.2,12.82,21.7,1.51,2.4.93,3.29-5.33-1.24-9.54-2.48-9.31-1.93-10.08,2.24,5.09,16.37,27.06,29.2l10.57,5.25,10-6.38c20.57-15,25.19-27.69,24-31.77s-6.19-2.87-10.25-1.21-8.58,4.24-9.24,3.41-.68-1.75.59-3.36,13.21-16,10.58-22.88-16.66-.45-18.79,0-2-1.63-1.44-2.77,7.47-14,10.82-19.72,3.92-10.37.7-13-8.46,1.78-11.38,2.85-3.58-2.82-3.58-2.82.85-9.6-.2-27.34-9.06-16.32-9.06-16.32"/><path class="cls-1" d="M34.24,244.49a2.28,2.28,0,0,1,0,.37,6,6,0,0,0,.08,1.09c.07,1,.16,2.39.29,4.2.24,3.64.55,8.92.91,15.43.72,13,1.57,31.06,2.44,51s1.67,37.93,2.32,51c.33,6.5.6,11.78.79,15.44.09,1.81.16,3.22.21,4.2v1.09a2.28,2.28,0,0,1,0,.37v-.37a6.12,6.12,0,0,0-.08-1.09c-.07-1-.17-2.38-.29-4.19-.24-3.64-.55-8.92-.91-15.44-.73-13-1.57-31-2.44-51s-1.67-37.92-2.33-51c-.33-6.51-.6-11.78-.78-15.44-.09-1.81-.16-3.22-.21-4.2v-1.46Z"/><path class="cls-1" d="M21.9,280.11a3.11,3.11,0,0,1,.65.55c.41.37,1,.92,1.68,1.61,1.39,1.38,3.27,3.34,5.3,5.54l5.17,5.66,1.57,1.7a2.93,2.93,0,0,1,.55.66,4.32,4.32,0,0,1-.66-.54c-.4-.38-1-.93-1.67-1.63-1.38-1.39-3.25-3.37-5.25-5.57L24,282.47l-1.58-1.7A3.44,3.44,0,0,1,21.9,280.11Z"/><path class="cls-1" d="M37.87,295.48c-.08-.08,3.79-4.13,8.63-9s8.85-8.84,8.93-8.76-3.79,4.13-8.64,9S38,295.56,37.87,295.48Z"/><path class="cls-1" d="M37.83,326.11a3.14,3.14,0,0,1,.73-.47l2.07-1.16c1.75-1,4.15-2.34,6.75-3.94s4.91-3.12,6.57-4.23L56,315a3.55,3.55,0,0,1,.75-.45,4.5,4.5,0,0,1-.66.57c-.44.35-1.09.84-1.9,1.43-1.63,1.17-3.92,2.74-6.53,4.33s-5,2.93-6.82,3.85c-.9.45-1.62.81-2.13,1A6,6,0,0,1,37.83,326.11Z"/><path class="cls-1" d="M20.32,315.39a2.85,2.85,0,0,1,.73.34c.46.24,1.11.61,1.92,1.07,1.6.91,3.81,2.2,6.24,3.64s4.61,2.77,6.18,3.75l1.85,1.17a2.81,2.81,0,0,1,.65.48,3.74,3.74,0,0,1-.73-.34c-.45-.25-1.11-.61-1.91-1.07-1.61-.91-3.82-2.2-6.25-3.64S24.39,318,22.82,317L21,315.89A3.51,3.51,0,0,1,20.32,315.39Z"/><path class="cls-1" d="M16.85,342.42a5.22,5.22,0,0,1,.92.45l2.47,1.36c2.07,1.16,4.92,2.79,8,4.61s5.95,3.48,8,4.71l2.4,1.47a4.91,4.91,0,0,1,.85.58,4,4,0,0,1-.93-.45L36.1,353.8c-2.07-1.16-4.91-2.79-8-4.61s-6-3.49-8-4.71L17.71,343A4.23,4.23,0,0,1,16.85,342.42Z"/><path class="cls-1" d="M39.05,355.14a4.37,4.37,0,0,1,.92-.62L42.53,353c2.17-1.33,5.16-3.16,8.4-5.28s6.14-4.1,8.23-5.55l2.47-1.71a4,4,0,0,1,.93-.59,6.31,6.31,0,0,1-.84.71c-.56.45-1.38,1.07-2.4,1.83-2,1.51-4.91,3.54-8.16,5.65s-6.27,3.92-8.48,5.18c-1.11.63-2,1.13-2.64,1.46A9,9,0,0,1,39.05,355.14Z"/><path class="cls-1" d="M54.93,373.38H25.69l9.54,72.24H45.39Z"/><path class="cls-5" d="M27.24,382.26s0,.1.15.25a1.9,1.9,0,0,0,.71.51,3.57,3.57,0,0,0,1.59.16,3.52,3.52,0,0,0,1.5-.54c1.18-.65,2.21-1.93,3.79-2.5a8.2,8.2,0,0,1,5.38.11,22.63,22.63,0,0,1,5,2.42,34.57,34.57,0,0,0,4,2.22,11.72,11.72,0,0,0,3,.87,6.07,6.07,0,0,0,.85.06h.29a15.15,15.15,0,0,1-4-1.21,43.57,43.57,0,0,1-4-2.25,22.32,22.32,0,0,0-5.09-2.51,8.52,8.52,0,0,0-5.68-.06,7.45,7.45,0,0,0-2.13,1.32,16.35,16.35,0,0,1-1.68,1.3,3.58,3.58,0,0,1-1.37.56,3.47,3.47,0,0,1-1.47-.07A3,3,0,0,1,27.24,382.26Z"/><path class="cls-5" d="M28.24,395.56s.23-.3.68-.77a6.49,6.49,0,0,1,2.34-1.49,10.44,10.44,0,0,1,4.07-.61,41.36,41.36,0,0,1,5.08.7,17.51,17.51,0,0,0,5.21.21,14.26,14.26,0,0,0,4.1-1.17A12.92,12.92,0,0,0,52.24,391a3.77,3.77,0,0,0,.78-.71,27.06,27.06,0,0,1-3.38,1.86,15.34,15.34,0,0,1-4,1,17.66,17.66,0,0,1-5.08-.25,37.2,37.2,0,0,0-5.15-.66,10.29,10.29,0,0,0-4.21.74,6,6,0,0,0-2.34,1.67,4.18,4.18,0,0,0-.45.65C28.3,395.47,28.24,395.55,28.24,395.56Z"/><path class="cls-5" d="M51.62,402.68a2.3,2.3,0,0,0-.81-.41,8.06,8.06,0,0,0-2.42-.52,15,15,0,0,0-3.66.21c-1.37.22-2.83.59-4.36.92a18.81,18.81,0,0,1-4.36.49,9.59,9.59,0,0,1-3.46-.75,8.13,8.13,0,0,1-2.62-2,2.23,2.23,0,0,0,.5.76,6.26,6.26,0,0,0,2,1.5,9.25,9.25,0,0,0,3.58.88,17.69,17.69,0,0,0,4.47-.46c1.56-.33,3-.72,4.34-1a15.81,15.81,0,0,1,3.57-.31A13.79,13.79,0,0,1,51.62,402.68Z"/><path class="cls-5" d="M30.86,412.7a4.7,4.7,0,0,1,2.84-.28,13.83,13.83,0,0,1,3,1.1,11.22,11.22,0,0,0,3.85,1.07,11.69,11.69,0,0,0,7-1.62,10.48,10.48,0,0,0,1.69-1.34c.35-.38.54-.6.51-.62a25.24,25.24,0,0,1-2.42,1.66,12,12,0,0,1-6.78,1.44c-2.77-.16-4.9-1.81-6.82-2a4.22,4.22,0,0,0-2.2.2A1.28,1.28,0,0,0,30.86,412.7Z"/><path class="cls-5" d="M32.49,426.57a5.7,5.7,0,0,0,2.44-.49c1.47-.49,3.28-1.61,5.41-2.46a9,9,0,0,1,3.11-.65,5.67,5.67,0,0,1,2.49.57,5.43,5.43,0,0,1,1.81,1.56,1.4,1.4,0,0,0-.28-.62,3.88,3.88,0,0,0-1.37-1.24,5.7,5.7,0,0,0-2.65-.71,8.57,8.57,0,0,0-3.28.65c-2.2.87-4,2-5.37,2.59S32.48,426.49,32.49,426.57Z"/><path class="cls-5" d="M33.92,433a7.55,7.55,0,0,0,1.85.6,32.91,32.91,0,0,0,4.63.78,35,35,0,0,0,4.69.14,7.46,7.46,0,0,0,1.94-.23c0-.15-3,0-6.58-.38S34,432.89,33.92,433Z"/><path class="cls-6" d="M444.51,444.45c0,.15-99.52.26-222.25.26S0,444.6,0,444.45s99.49-.26,222.26-.26S444.51,444.31,444.51,444.45Z"/><path class="cls-7" d="M125.6,131.89s2.72-16.31,3.37-17.55,8.16-8.86,9.05-9,12.74-3.88,12.08-2-9,4.34-9,4.34l-.79,1s7.11-2.32,8.87-2.26,1.92,1.75.65,2.23-7.53,2.31-7.77,2.71,7-1.67,7.88-1.63c1.22,0,2.1,1.59.86,2.12-.74.3-7.7,1.9-7.7,1.9a61.05,61.05,0,0,1,6.47-.5c1.07.29,1,1.59-.2,1.9-.81.21-5.06.4-6.14.69,0,0-.81.68-.78,2.84s-2.77,7.89-2.77,7.89Z"/><path class="cls-8" d="M150.09,103.29a6.14,6.14,0,0,1-1.74,1.51,14.51,14.51,0,0,1-2.22,1.22c-.88.33-1.86.67-2.88,1l-2.19.74.12-.07a35.08,35.08,0,0,1-4.05,3.75,35.61,35.61,0,0,1,3.66-4.1v0h.07l2.16-.76,2.87-1a17.93,17.93,0,0,0,2.2-1.08C149.35,103.78,150,103.22,150.09,103.29Z"/><path class="cls-9" d="M308,311,146.56,294.38a9,9,0,0,1-8-9.86L166.49,13.14a12.78,12.78,0,0,1,14-11.39L334.41,17.6a12.77,12.77,0,0,1,11.39,14L317.8,303a9,9,0,0,1-9.82,8Z"/><path class="cls-10" d="M308,311,146.56,294.38a9,9,0,0,1-8-9.86L166.49,13.14a12.78,12.78,0,0,1,14-11.39L334.41,17.6a12.77,12.77,0,0,1,11.39,14L317.8,303a9,9,0,0,1-9.82,8Z"/><path class="cls-9" d="M291.69,309.33,130.24,292.71a9,9,0,0,1-8-9.87l28-271.38a12.74,12.74,0,0,1,14-11.39L318.12,15.89a12.77,12.77,0,0,1,11.39,14l-28,271.39a9,9,0,0,1-9.82,8.05Z"/><path class="cls-9" d="M209.62,235.46,154,229.73a2.41,2.41,0,0,0-2.65,2.16L149,253.79a2.42,2.42,0,0,0,2.16,2.66l55.67,5.73a2.41,2.41,0,0,0,2.65-2.16l2.26-21.9A2.42,2.42,0,0,0,209.62,235.46Z"/><g class="cls-11"><path class="cls-10" d="M209.62,235.46,154,229.73a2.41,2.41,0,0,0-2.65,2.16L149,253.79a2.42,2.42,0,0,0,2.16,2.66l55.67,5.73a2.41,2.41,0,0,0,2.65-2.16l2.26-21.9A2.42,2.42,0,0,0,209.62,235.46Z"/></g><path class="cls-12" d="M161.45,30.41l-6.2,60.13,153.29,15.79,6.19-60.14Z"/><path class="cls-6" d="M308.8,106.07a9.4,9.4,0,0,1,.09-1.07c.09-.7.17-1.75.3-3.11.27-2.74.67-6.76,1.19-12,1-10.37,2.55-25.38,4.43-44l.16.2L161.68,30.41l.29-.23c-2.17,21-4.27,41.35-6.21,60.13l-.22-.28,109.85,11.44,31.9,3.35,8.55.92,2.21.24.76.09a6.84,6.84,0,0,1-.74-.06l-2.18-.21-8.5-.84-31.9-3.21-110-11.22h-.25v-.24c1.93-18.79,4-39.11,6.18-60.14v-.26h.26L315,45.76h.18v.18c-2,18.67-3.55,33.72-4.64,44.11-.55,5.16-1,9.17-1.27,11.89-.15,1.35-.26,2.38-.34,3.08Z"/><path class="cls-9" d="M185.34,117.86l-21.92-2.26a2.08,2.08,0,0,0-2.28,1.86l-2.26,21.91a2.09,2.09,0,0,0,1.86,2.28l21.91,2.26a2.08,2.08,0,0,0,2.29-1.86l2.25-21.91A2.07,2.07,0,0,0,185.34,117.86Z"/><g class="cls-11"><path class="cls-10" d="M185.34,117.86l-21.92-2.26a2.08,2.08,0,0,0-2.28,1.86l-2.26,21.91a2.09,2.09,0,0,0,1.86,2.28l21.91,2.26a2.08,2.08,0,0,0,2.29-1.86l2.25-21.91A2.07,2.07,0,0,0,185.34,117.86Z"/></g><path class="cls-6" d="M181.32,117.45l-21.92-2.26a2.08,2.08,0,0,0-2.28,1.86L154.87,139a2.08,2.08,0,0,0,1.85,2.28l21.92,2.26a2.08,2.08,0,0,0,2.28-1.86l2.26-21.91A2.09,2.09,0,0,0,181.32,117.45Z"/><path class="cls-13" d="M171.42,124l-1.11,10.89-2.52-.26.91-8.84-2.17-.23.21-2Z"/><path class="cls-9" d="M221.67,121.61l-21.91-2.26a2.07,2.07,0,0,0-2.28,1.86l-2.26,21.91a2.07,2.07,0,0,0,1.85,2.28L219,147.66a2.08,2.08,0,0,0,2.28-1.85l2.26-21.92A2.09,2.09,0,0,0,221.67,121.61Z"/><g class="cls-11"><path class="cls-10" d="M221.67,121.61l-21.91-2.26a2.07,2.07,0,0,0-2.28,1.86l-2.26,21.91a2.07,2.07,0,0,0,1.85,2.28L219,147.66a2.08,2.08,0,0,0,2.28-1.85l2.26-21.92A2.09,2.09,0,0,0,221.67,121.61Z"/></g><path class="cls-6" d="M217.64,121.19l-21.91-2.26a2.08,2.08,0,0,0-2.28,1.86l-2.26,21.91a2.07,2.07,0,0,0,1.86,2.28L215,147.24a2.07,2.07,0,0,0,2.28-1.85l2.26-21.92A2.08,2.08,0,0,0,217.64,121.19Z"/><path class="cls-13" d="M210.77,137l-.21,2-8.2-.84.17-1.63,4.59-3.53c1.06-.81,1.29-1.35,1.34-1.88.09-.85-.45-1.41-1.6-1.53a2.7,2.7,0,0,0-1.29.13,2.63,2.63,0,0,0-1.07.73L202.79,129a5,5,0,0,1,4.52-1.57c2.42.25,3.91,1.65,3.7,3.62-.1,1.06-.5,2-2.16,3.24l-2.74,2.1Z"/><path class="cls-9" d="M259.34,125.49l-21.92-2.26a2.08,2.08,0,0,0-2.28,1.86L232.88,147a2.08,2.08,0,0,0,1.86,2.28l21.91,2.26a2.09,2.09,0,0,0,2.29-1.86l2.25-21.91A2.08,2.08,0,0,0,259.34,125.49Z"/><g class="cls-11"><path class="cls-10" d="M259.34,125.49l-21.92-2.26a2.08,2.08,0,0,0-2.28,1.86L232.88,147a2.08,2.08,0,0,0,1.86,2.28l21.91,2.26a2.09,2.09,0,0,0,2.29-1.86l2.25-21.91A2.08,2.08,0,0,0,259.34,125.49Z"/></g><path class="cls-6" d="M255.32,125.07l-21.91-2.26a2.08,2.08,0,0,0-2.29,1.86l-2.25,21.91a2.07,2.07,0,0,0,1.85,2.28l21.92,2.26a2.08,2.08,0,0,0,2.28-1.86l2.26-21.91A2.09,2.09,0,0,0,255.32,125.07Z"/><path class="cls-13" d="M248.48,139.55c-.19,1.83-1.77,3.36-4.86,3a7.6,7.6,0,0,1-4-1.59l1.17-1.83a5.33,5.33,0,0,0,3,1.3c1.26.13,2.09-.3,2.18-1.19s-.47-1.39-1.89-1.54l-1.15-.12.17-1.66,2.49-2.3L241,133.2l.21-2,7.6.78-.17,1.63-2.74,2.54a3.08,3.08,0,0,1,2.61,3.4Z"/><path class="cls-9" d="M297,129.37l-21.91-2.26a2.08,2.08,0,0,0-2.29,1.86l-2.25,21.91a2.08,2.08,0,0,0,1.85,2.28l21.92,2.26a2.08,2.08,0,0,0,2.28-1.86l2.26-21.91A2.09,2.09,0,0,0,297,129.37Z"/><g class="cls-11"><path class="cls-10" d="M297,129.37l-21.91-2.26a2.08,2.08,0,0,0-2.29,1.86l-2.25,21.91a2.08,2.08,0,0,0,1.85,2.28l21.92,2.26a2.08,2.08,0,0,0,2.28-1.86l2.26-21.91A2.09,2.09,0,0,0,297,129.37Z"/></g><path class="cls-6" d="M293.07,129l-21.91-2.26a2.08,2.08,0,0,0-2.28,1.85l-2.26,21.92a2.08,2.08,0,0,0,1.86,2.28L290.39,155a2.09,2.09,0,0,0,2.28-1.86l2.26-21.91A2.07,2.07,0,0,0,293.07,129Z"/><path class="cls-13" d="M274.87,139.32l-.1,1,11.64,1.2.1-1Z"/><path class="cls-13" d="M283.07,135.55a2,2,0,0,1-.42,1,1.92,1.92,0,0,1-.92.61,2,2,0,0,1-1.11,0,1.91,1.91,0,0,1-.91-.62,1.89,1.89,0,0,1-.2-2.1,1.89,1.89,0,0,1,.78-.78,1.85,1.85,0,0,1,1.08-.21,1.9,1.9,0,0,1,1.7,2.08Z"/><path class="cls-13" d="M282,145.7a2,2,0,0,1-.42,1,1.9,1.9,0,0,1-2,.6,1.8,1.8,0,0,1-.91-.62,1.82,1.82,0,0,1-.42-1,1.9,1.9,0,0,1,3.36-1.37A1.89,1.89,0,0,1,282,145.7Z"/><path class="cls-9" d="M181.41,156l-21.92-2.25a2.08,2.08,0,0,0-2.28,1.85L155,177.55a2.09,2.09,0,0,0,1.86,2.28l21.91,2.26a2.09,2.09,0,0,0,2.29-1.86l2.25-21.91A2.08,2.08,0,0,0,181.41,156Z"/><g class="cls-11"><path class="cls-10" d="M181.41,156l-21.92-2.25a2.08,2.08,0,0,0-2.28,1.85L155,177.55a2.09,2.09,0,0,0,1.86,2.28l21.91,2.26a2.09,2.09,0,0,0,2.29-1.86l2.25-21.91A2.08,2.08,0,0,0,181.41,156Z"/></g><path class="cls-6" d="M177.39,155.62l-21.91-2.25a2.08,2.08,0,0,0-2.29,1.85l-2.25,21.92a2.08,2.08,0,0,0,1.85,2.28l21.92,2.26a2.09,2.09,0,0,0,2.28-1.86l2.26-21.91A2.09,2.09,0,0,0,177.39,155.62Z"/><path class="cls-13" d="M169.78,171.07l-1.77-.18-.24,2.28-2.45-.25.24-2.28-5.85-.61.17-1.69,5.83-6.36,2.64.28-5.42,6,2.92.3.21-2,2.37.24-.21,2L170,169Z"/><path class="cls-9" d="M217.74,159.78l-21.91-2.26a2.09,2.09,0,0,0-2.29,1.85l-2.25,21.92a2.08,2.08,0,0,0,1.85,2.28l21.92,2.26a2.08,2.08,0,0,0,2.28-1.86l2.26-21.91A2.08,2.08,0,0,0,217.74,159.78Z"/><g class="cls-11"><path class="cls-10" d="M217.74,159.78l-21.91-2.26a2.09,2.09,0,0,0-2.29,1.85l-2.25,21.92a2.08,2.08,0,0,0,1.85,2.28l21.92,2.26a2.08,2.08,0,0,0,2.28-1.86l2.26-21.91A2.08,2.08,0,0,0,217.74,159.78Z"/></g><path class="cls-6" d="M213.73,159.36l-21.92-2.26a2.08,2.08,0,0,0-2.28,1.86l-2.26,21.91a2.08,2.08,0,0,0,1.86,2.28L211,185.41a2.09,2.09,0,0,0,2.29-1.86l2.25-21.91A2.07,2.07,0,0,0,213.73,159.36Z"/><path class="cls-13" d="M205.78,173.64c-.19,1.92-1.78,3.45-4.88,3.13a7.68,7.68,0,0,1-4-1.59l1.19-1.82a5.25,5.25,0,0,0,3,1.29c1.26.13,2.09-.31,2.18-1.2s-.41-1.47-2.38-1.67l-2.78-.29,1.19-6,6.62.68-.2,2-4.53-.47-.39,2.05.89.09C204.86,170.14,206,171.71,205.78,173.64Z"/><path class="cls-9" d="M255.42,163.65,233.5,161.4a2.08,2.08,0,0,0-2.28,1.85L229,185.17a2.08,2.08,0,0,0,1.86,2.28l21.91,2.26a2.08,2.08,0,0,0,2.28-1.86l2.26-21.91A2.08,2.08,0,0,0,255.42,163.65Z"/><g class="cls-11"><path class="cls-10" d="M255.42,163.65,233.5,161.4a2.08,2.08,0,0,0-2.28,1.85L229,185.17a2.08,2.08,0,0,0,1.86,2.28l21.91,2.26a2.08,2.08,0,0,0,2.28-1.86l2.26-21.91A2.08,2.08,0,0,0,255.42,163.65Z"/></g><path class="cls-6" d="M251.39,163.23,229.48,161a2.08,2.08,0,0,0-2.29,1.85l-2.25,21.92a2.08,2.08,0,0,0,1.85,2.28l21.92,2.26a2.09,2.09,0,0,0,2.28-1.86l2.26-21.91A2.09,2.09,0,0,0,251.39,163.23Z"/><path class="cls-13" d="M244.24,177.58c-.23,2.22-2.19,3.43-4.48,3.19-3-.31-4.66-2.38-4.3-5.88.39-3.76,2.87-5.62,6.14-5.28a5.83,5.83,0,0,1,3,1.06l-1.12,1.75a3.58,3.58,0,0,0-2-.76c-1.82-.18-3.09.77-3.38,2.84a3.64,3.64,0,0,1,2.78-.69,3.45,3.45,0,0,1,3.24,2.36A3.36,3.36,0,0,1,244.24,177.58Zm-2.45-.13a1.6,1.6,0,0,0-.07-.69,1.51,1.51,0,0,0-.35-.6,1.64,1.64,0,0,0-.57-.4,1.59,1.59,0,0,0-.68-.13,1.65,1.65,0,0,0-1.34.27,1.94,1.94,0,0,0-.48.51,1.68,1.68,0,0,0-.23.66c-.1.93.53,1.68,1.74,1.81a1.73,1.73,0,0,0,.68,0,1.68,1.68,0,0,0,.61-.27,1.57,1.57,0,0,0,.45-.51,1.51,1.51,0,0,0,.21-.64Z"/><path class="cls-9" d="M293.07,167.53l-21.91-2.25a2.08,2.08,0,0,0-2.29,1.85l-2.25,21.92a2.08,2.08,0,0,0,1.85,2.28l21.92,2.25a2.08,2.08,0,0,0,2.28-1.85l2.26-21.92A2.09,2.09,0,0,0,293.07,167.53Z"/><g class="cls-11"><path class="cls-10" d="M293.07,167.53l-21.91-2.25a2.08,2.08,0,0,0-2.29,1.85l-2.25,21.92a2.08,2.08,0,0,0,1.85,2.28l21.92,2.25a2.08,2.08,0,0,0,2.28-1.85l2.26-21.92A2.09,2.09,0,0,0,293.07,167.53Z"/></g><path class="cls-6" d="M289.05,167.11l-21.91-2.25a2.08,2.08,0,0,0-2.28,1.85l-2.26,21.92a2.08,2.08,0,0,0,1.86,2.28l21.91,2.25a2.07,2.07,0,0,0,2.28-1.85l2.26-21.92A2.08,2.08,0,0,0,289.05,167.11Z"/><path class="cls-13" d="M281,175l-9.19,7.25.62.78,9.19-7.24Z"/><path class="cls-13" d="M273.45,174.21l-.77.63,7.38,9.07.78-.63Z"/><path class="cls-9" d="M177.51,193.89l-21.92-2.25a2.08,2.08,0,0,0-2.28,1.85l-2.25,21.92a2.08,2.08,0,0,0,1.85,2.28L174.83,220a2.09,2.09,0,0,0,2.28-1.86l2.25-21.91A2.08,2.08,0,0,0,177.51,193.89Z"/><g class="cls-11"><path class="cls-10" d="M177.51,193.89l-21.92-2.25a2.08,2.08,0,0,0-2.28,1.85l-2.25,21.92a2.08,2.08,0,0,0,1.85,2.28L174.83,220a2.09,2.09,0,0,0,2.28-1.86l2.25-21.91A2.08,2.08,0,0,0,177.51,193.89Z"/></g><path class="cls-6" d="M173.49,193.49l-21.91-2.26a2.09,2.09,0,0,0-2.29,1.85L147,215a2.08,2.08,0,0,0,1.85,2.28l21.92,2.26a2.08,2.08,0,0,0,2.28-1.86l2.26-21.91A2.07,2.07,0,0,0,173.49,193.49Z"/><path class="cls-13" d="M165.32,200.2l-.17,1.63-5,8.82-2.73-.29,4.8-8.41-3.6-.37-.18,1.77-2.24-.23.4-3.81Z"/><path class="cls-9" d="M213.84,197.64l-21.91-2.26a2.07,2.07,0,0,0-2.28,1.86l-2.26,21.91a2.08,2.08,0,0,0,1.86,2.28l21.91,2.26a2.07,2.07,0,0,0,2.28-1.86l2.26-21.91A2.07,2.07,0,0,0,213.84,197.64Z"/><g class="cls-11"><path class="cls-10" d="M213.84,197.64l-21.91-2.26a2.07,2.07,0,0,0-2.28,1.86l-2.26,21.91a2.08,2.08,0,0,0,1.86,2.28l21.91,2.26a2.07,2.07,0,0,0,2.28-1.86l2.26-21.91A2.07,2.07,0,0,0,213.84,197.64Z"/></g><path class="cls-6" d="M209.82,197.22,187.9,195a2.08,2.08,0,0,0-2.28,1.86l-2.26,21.91a2.09,2.09,0,0,0,1.86,2.28l21.92,2.26a2.08,2.08,0,0,0,2.28-1.86l2.25-21.91A2.08,2.08,0,0,0,209.82,197.22Z"/><path class="cls-13" d="M202.74,211.89c-.21,2-2.17,3.15-4.93,2.86s-4.43-1.76-4.22-3.8a2.82,2.82,0,0,1,.59-1.49,2.75,2.75,0,0,1,1.32-.9,2.56,2.56,0,0,1-1-2.37c.2-1.91,2-2.92,4.49-2.67s4.08,1.63,3.89,3.54a2.49,2.49,0,0,1-.47,1.25,2.54,2.54,0,0,1-1,.85,2.8,2.8,0,0,1,1.1,1.16A2.74,2.74,0,0,1,202.74,211.89Zm-2.54-.34c.1-1-.63-1.63-1.88-1.76s-2.08.38-2.18,1.34.61,1.65,1.86,1.78,2.11-.44,2.24-1.4Zm-3.24-5c-.09.82.51,1.4,1.53,1.51s1.76-.34,1.85-1.16-.54-1.44-1.57-1.54-1.73.31-1.81,1.16Z"/><path class="cls-9" d="M251.51,201.52l-21.92-2.26a2.08,2.08,0,0,0-2.28,1.85L225.05,223a2.09,2.09,0,0,0,1.86,2.28l21.91,2.26a2.09,2.09,0,0,0,2.29-1.86l2.25-21.91A2.07,2.07,0,0,0,251.51,201.52Z"/><g class="cls-11"><path class="cls-10" d="M251.51,201.52l-21.92-2.26a2.08,2.08,0,0,0-2.28,1.85L225.06,223a2.08,2.08,0,0,0,1.85,2.28l21.91,2.26a2.09,2.09,0,0,0,2.29-1.86l2.25-21.91A2.07,2.07,0,0,0,251.51,201.52Z"/></g><path class="cls-6" d="M246.76,199.34,225,197.14a2.07,2.07,0,0,0-2.27,1.85l-2.2,21.81a2.07,2.07,0,0,0,1.85,2.27l21.81,2.2a2.07,2.07,0,0,0,2.27-1.85l2.2-21.81A2.07,2.07,0,0,0,246.76,199.34Z"/><path class="cls-13" d="M240.24,213.17c-.39,3.76-2.85,5.62-6.14,5.28a5.84,5.84,0,0,1-2.93-1l1.12-1.75a3.54,3.54,0,0,0,2,.75c1.8.18,3.09-.77,3.38-2.85a3.88,3.88,0,0,1-1.33.63,3.83,3.83,0,0,1-1.47.07,3.48,3.48,0,0,1-1.38-.32,3.31,3.31,0,0,1-1.13-.83,3.5,3.5,0,0,1-.88-2.62c.23-2.22,2.19-3.43,4.49-3.19C239,207.6,240.61,209.67,240.24,213.17ZM237.63,211c.09-.93-.54-1.68-1.73-1.81a1.56,1.56,0,0,0-.68,0,1.67,1.67,0,0,0-.62.29,1.55,1.55,0,0,0-.44.51,1.66,1.66,0,0,0-.21.65,1.71,1.71,0,0,0,.08.67,1.68,1.68,0,0,0,.35.59,1.63,1.63,0,0,0,.55.39,1.71,1.71,0,0,0,.67.14,1.65,1.65,0,0,0,.7,0,1.74,1.74,0,0,0,.64-.28,1.54,1.54,0,0,0,.47-.51,1.69,1.69,0,0,0,.23-.65Z"/><path class="cls-9" d="M289.17,205.39l-21.91-2.25A2.07,2.07,0,0,0,265,205l-2.26,21.92a2.08,2.08,0,0,0,1.85,2.28l21.92,2.26a2.09,2.09,0,0,0,2.28-1.86L291,207.68A2.08,2.08,0,0,0,289.17,205.39Z"/><g class="cls-11"><path class="cls-10" d="M289.17,205.39l-21.91-2.25A2.07,2.07,0,0,0,265,205l-2.26,21.92a2.08,2.08,0,0,0,1.85,2.28l21.92,2.26a2.09,2.09,0,0,0,2.28-1.86L291,207.68A2.08,2.08,0,0,0,289.17,205.39Z"/></g><path class="cls-6" d="M285.16,205l-21.92-2.25a2.08,2.08,0,0,0-2.28,1.85l-2.26,21.92a2.09,2.09,0,0,0,1.86,2.28L282.47,231a2.09,2.09,0,0,0,2.29-1.86L287,207.26A2.08,2.08,0,0,0,285.16,205Z"/><path class="cls-13" d="M267.09,215.8l-.1,1,11.64,1.2.1-1Z"/><path class="cls-9" d="M247.58,239.71l-21.92-2.26a2.09,2.09,0,0,0-2.28,1.86l-2.26,21.91a2.09,2.09,0,0,0,1.86,2.29l21.91,2.25a2.07,2.07,0,0,0,2.28-1.85L249.43,242A2.08,2.08,0,0,0,247.58,239.71Z"/><g class="cls-11"><path class="cls-10" d="M247.58,239.71l-21.92-2.26a2.09,2.09,0,0,0-2.28,1.86l-2.26,21.91a2.09,2.09,0,0,0,1.86,2.29l21.91,2.25a2.07,2.07,0,0,0,2.28-1.85L249.43,242A2.08,2.08,0,0,0,247.58,239.71Z"/></g><path class="cls-6" d="M243.55,239.29,221.64,237a2.09,2.09,0,0,0-2.29,1.86L217.1,260.8a2.08,2.08,0,0,0,1.85,2.29l21.92,2.25a2.08,2.08,0,0,0,2.28-1.85l2.26-21.92A2.09,2.09,0,0,0,243.55,239.29Z"/><path class="cls-9" d="M285.24,243.59l-21.91-2.26a2.09,2.09,0,0,0-2.29,1.86l-2.25,21.91a2.08,2.08,0,0,0,1.85,2.29l21.92,2.25a2.08,2.08,0,0,0,2.28-1.85l2.26-21.92A2.09,2.09,0,0,0,285.24,243.59Z"/><g class="cls-11"><path class="cls-10" d="M285.24,243.59l-21.91-2.26a2.09,2.09,0,0,0-2.29,1.86l-2.25,21.91a2.08,2.08,0,0,0,1.85,2.29l21.92,2.25a2.08,2.08,0,0,0,2.28-1.85l2.26-21.92A2.09,2.09,0,0,0,285.24,243.59Z"/></g><path class="cls-14" d="M281.22,243.17l-21.91-2.26a2.09,2.09,0,0,0-2.28,1.86l-2.26,21.91a2.08,2.08,0,0,0,1.86,2.29l21.91,2.25a2.07,2.07,0,0,0,2.28-1.85l2.26-21.92A2.08,2.08,0,0,0,281.22,243.17Z"/><path class="cls-13" d="M263.31,252.57l-.1,1,11.64,1.2.1-1Z"/><path class="cls-13" d="M262.86,257l-.1,1,11.64,1.2.1-1Z"/><path class="cls-6" d="M204.65,235l-57.92-6a2.5,2.5,0,0,0-2.75,2.23L141.74,253A2.5,2.5,0,0,0,144,255.7l57.93,6a2.49,2.49,0,0,0,2.74-2.23l2.24-21.74A2.5,2.5,0,0,0,204.65,235Z"/><path class="cls-13" d="M172,244.57c.37-3.59,2.57-5.41,5.24-5.14s4.44,2.51,4.07,6.1-2.55,5.41-5.23,5.13S171.59,248.15,172,244.57Zm6.78.7c.26-2.47-.51-3.58-1.76-3.71s-2.22.8-2.47,3.27.51,3.58,1.75,3.71S178.49,247.73,178.74,245.27Z"/><path class="cls-13" d="M231.43,245.32l-1.37,11.62,1,.11,1.37-11.62Z"/><path class="cls-13" d="M225.49,250.1l-.1,1L237,252.3l.1-1Z"/><path class="cls-6" d="M220,67.13l-1.67,16.23-.77-.08,1.64-15.51-4.08-.42.07-.72Z"/><path class="cls-6" d="M233.38,84.18l-.08.72-11-1.13.06-.56L230,76.92c2.2-1.79,2.73-2.93,2.87-4.25.22-2.16-1.14-3.7-4-4a6,6,0,0,0-5.07,1.44l-.48-.56A6.83,6.83,0,0,1,229,68c3.1.32,4.91,2.12,4.64,4.74-.16,1.54-.78,2.83-3.14,4.74l-7,5.73Z"/><path class="cls-6" d="M246.24,81.68c-.28,2.7-2.37,4.4-5.94,4a7.39,7.39,0,0,1-5.41-2.83l.48-.51a7,7,0,0,0,2.21,1.86,6.84,6.84,0,0,0,2.79.76c3.1.32,4.88-1,5.13-3.38s-1.18-4-4.62-4.39l-.9-.1.06-.55,5.73-6.07-9-.92.07-.72,10,1-.06.55-5.76,6.09C244.83,76.89,246.52,79,246.24,81.68Z"/><path class="cls-6" d="M262.24,83.14l-3.53-.36-.48,4.69-.77-.08.48-4.69-9.32-1,.06-.56,10.11-10.06.9.09-10,9.94L258,82l.42-4.13.77.08L258.76,82l3.53.37Z"/><path class="cls-6" d="M265.61,87.52a4.28,4.28,0,0,1-.23.85l-1.16,3-.6-.06,1.05-3.13a.83.83,0,0,1-.5-.31.75.75,0,0,1-.13-.58.75.75,0,0,1,.31-.5.72.72,0,0,1,.57-.13.76.76,0,0,1,.52.29A.78.78,0,0,1,265.61,87.52Z"/><path class="cls-6" d="M281.69,85.15l-3.52-.36-.48,4.68-.77-.08.48-4.68-9.32-1,.06-.56,10.1-10,.9.1-10,9.94,8.31.85.42-4.13.77.08-.4,4.13,3.53.36Z"/><path class="cls-6" d="M293.75,86.49c-.28,2.64-2.32,4.49-6,4.11a7.48,7.48,0,0,1-3-.83,7.29,7.29,0,0,1-2.38-2l.5-.51a6.72,6.72,0,0,0,2.21,1.86,6.8,6.8,0,0,0,2.79.76c3.17.33,4.9-1.18,5.14-3.48.26-2.5-1.08-4.14-5.72-4.62l-3.15-.32,1.6-7.57,8.37.87-.07.72-7.73-.8L285,80.82l2.5.26C292.44,81.59,294,83.61,293.75,86.49Z"/><path class="cls-9" d="M116.36,419.06,110,442.57l20.67,1.88L135,422.07Z"/><path class="cls-6" d="M131.24,442.54a14.33,14.33,0,0,1-3-.1c-1.86-.15-4.42-.44-7.25-.8l-7.22-1a16.1,16.1,0,0,1-3-.52,15,15,0,0,1,3,.12c1.86.15,4.42.44,7.25.8l7.22,1A17.89,17.89,0,0,1,131.24,442.54Z"/><g class="cls-15"><path class="cls-16" d="M110,442.57l20.67,1.88.33-1.72-20.4-2.59-.57,2.19"/></g><path class="cls-6" d="M120.24,441.52a180.41,180.41,0,0,1,4.4-17.9,89.83,89.83,0,0,1-2,9A92.05,92.05,0,0,1,120.24,441.52Z"/><path class="cls-6" d="M130.13,442.39a10.07,10.07,0,0,0,0-4.37,8.63,8.63,0,0,0-2.26-4.09,8.39,8.39,0,0,0-5.14-2.37,8.82,8.82,0,0,0-5.53,1.26,9.51,9.51,0,0,0-3.22,3.42,12.05,12.05,0,0,0-1.31,4.19,1.6,1.6,0,0,1,0-.31,6.55,6.55,0,0,1,0-.89,9.21,9.21,0,0,1,1-3.15,9.58,9.58,0,0,1,3.28-3.64,9,9,0,0,1,5.82-1.36,8.75,8.75,0,0,1,5.41,2.53,8.88,8.88,0,0,1,2.28,4.33,8.33,8.33,0,0,1,0,3.3,5.31,5.31,0,0,1-.26.86A1.48,1.48,0,0,1,130.13,442.39Z"/><path class="cls-9" d="M201.61,416.38l-1.23,18.51s18.42,6.11,18.53,9.55l-36,.26.73-28.92Z"/><g class="cls-15"><path class="cls-16" d="M189.3,433a1.39,1.39,0,0,0,.56,2.72A1.57,1.57,0,0,0,191,434a1.44,1.44,0,0,0-.72-.83,1.48,1.48,0,0,0-1.09-.1"/></g><g class="cls-15"><path class="cls-16" d="M182.91,444.72l.19-2.92,34.66,1a2.42,2.42,0,0,1,.91.8,2.51,2.51,0,0,1,.42,1.15Z"/></g><path class="cls-6" d="M201,434.73c0,.18-.89.23-1.78.77s-1.36,1.26-1.52,1.19.13-1.08,1.21-1.72S201,434.57,201,434.73Z"/><path class="cls-6" d="M204.69,436.41c0,.17-.73.44-1.35,1.17s-.82,1.5-1,1.49-.26-1,.53-1.9S204.7,436.24,204.69,436.41Z"/><path class="cls-6" d="M206.7,441c-.16,0-.38-.86.1-1.8s1.32-1.31,1.39-1.16-.46.65-.84,1.43S206.88,441,206.7,441Z"/><path class="cls-6" d="M200.78,430.48c-.08.16-.88-.11-1.87-.07s-1.78.33-1.87.17.68-.75,1.85-.78S200.87,430.35,200.78,430.48Z"/><g class="cls-17"><path class="cls-18" d="M201.36,420.05l-.22,3.3-17.68-.7.07-3Z"/></g><path class="cls-6" d="M201,426.74a3.43,3.43,0,0,1-1.8-.06,8.27,8.27,0,0,1-1.87-.64,7.65,7.65,0,0,1-1-.58,2.26,2.26,0,0,1-.53-.44.79.79,0,0,1-.19-.46.75.75,0,0,1,.14-.48.87.87,0,0,1,.35-.28.91.91,0,0,1,.43-.1,1.93,1.93,0,0,1,.67.12,5.51,5.51,0,0,1,1.11.42,6.14,6.14,0,0,1,1.63,1.14c.81.8,1.08,1.46,1,1.49s-.47-.5-1.3-1.17a6.51,6.51,0,0,0-1.58-.95,5.93,5.93,0,0,0-1-.35c-.38-.11-.7-.13-.81,0s0,.09,0,.2a3.09,3.09,0,0,0,.39.33q.47.31.93.57a10.78,10.78,0,0,0,1.72.72A12.94,12.94,0,0,1,201,426.74Z"/><path class="cls-6" d="M200.72,427a3,3,0,0,1-.42-1.76,5.63,5.63,0,0,1,.8-3,1.45,1.45,0,0,1,.47-.6,1.48,1.48,0,0,1,.7-.28.81.81,0,0,1,.45.15.9.9,0,0,1,.29.38,2.47,2.47,0,0,1,.17.66,4.13,4.13,0,0,1-.87,3c-.73.92-1.47,1.1-1.48,1A9.49,9.49,0,0,0,202,425.3a4.08,4.08,0,0,0,.62-1.67,3.69,3.69,0,0,0,0-1.05c0-.38-.18-.69-.32-.66a1.31,1.31,0,0,0-.65.57,6.13,6.13,0,0,0-.48,1,6.76,6.76,0,0,0-.4,1.78C200.65,426.3,200.82,427,200.72,427Z"/><path class="cls-14" d="M123.55,128s-3.91,21.3-7,34.19c-2.44,10-8.74,28.78,2.67,34.23s26.71-16.56,26.71-16.56l6.51-50.14c-4.53.85-9.67,6.11-15.14,13.84l1-19Z"/><path class="cls-7" d="M280.57,159.5l-6,2.86L269,153.69l3.23-6.69c.31-.62.64-1.31,1-2.11a9.16,9.16,0,0,0,.71-2.95,13.93,13.93,0,0,0-.09-3.76c-.3-1.12.88-2,1.68-1.38s1.7,3.7,1.11,7.39,3.69-.22,5.28-1.62,6.7-5.48,7.51-5.32c1.17.23,1.14,1.57-.48,2.92s-6.19,5.78-5.44,6.6a4.48,4.48,0,0,1,2.52,1.13,4.57,4.57,0,0,1,1.4,2.38c.4,1.81.73,4.32-.29,5.15A62,62,0,0,1,280.57,159.5Z"/><path class="cls-7" d="M164.24,78.68l-.16,52.11,22.34,1.1.65-12.67s7.94,1.58,10-5.8c1.31-4.71,1-41.12,1-41.12Z"/><path class="cls-6" d="M203.09,77.4c-1.51,3.11-8.68,8.81-8.68,8.81l-3.24,8.68c-2.81-2.2-6.59-2.07-7.3,2.87-.52,3.58,3.92,4.3,3.92,4.3-2.59,4.4-4.34,8-8.1,12.14-4.08,4.54-6.36,5-10.78,5.07H164s-10-8.34-8-30.29,21.71-15.54,26.42-21C190.12,59,208.12,67,203.09,77.4Z"/><path class="cls-14" d="M157.14,107.33h.62a9.5,9.5,0,0,0,1.77-.2,12.68,12.68,0,0,0,5.73-3,31.71,31.71,0,0,0,5.8-7.77c1-1.57,1.94-3.24,3.14-4.85a18.59,18.59,0,0,1,4.39-4.37,18,18,0,0,1,5.7-2.43c1.94-.5,3.85-.81,5.65-1.16,3.6-.67,6.83-1.67,9-3.38a9.77,9.77,0,0,0,3.65-5.28,7.51,7.51,0,0,0,.22-1.76V72.5a4.19,4.19,0,0,0,.07.63,7.63,7.63,0,0,1-.18,1.78,9.84,9.84,0,0,1-3.64,5.38c-2.22,1.74-5.48,2.77-9.08,3.44-1.81.36-3.71.67-5.64,1.18a17.93,17.93,0,0,0-5.64,2.4,18.73,18.73,0,0,0-4.34,4.32c-1.19,1.6-2.18,3.26-3.13,4.83a31.6,31.6,0,0,1-5.87,7.78,12.61,12.61,0,0,1-5.81,3,9.78,9.78,0,0,1-1.79.17Z"/><path class="cls-14" d="M156,89.48s.35-.14,1-.36a14.61,14.61,0,0,1,3.07-.73,7,7,0,0,1,4.79,1A3.91,3.91,0,0,1,166,90.5a4,4,0,0,1,.6,1.45,3.55,3.55,0,0,1-1,3.27,2.89,2.89,0,0,1-1.75.7,3.67,3.67,0,0,1-1.91-.51,5.77,5.77,0,0,1-2.56-3.24,8,8,0,0,1-.19-4.44,7.68,7.68,0,0,1,2.41-4,7.91,7.91,0,0,1,4.51-2,13.51,13.51,0,0,1,5.13.66,37.13,37.13,0,0,0,5.2,1.25,20.94,20.94,0,0,0,5.48,0,18.2,18.2,0,0,0,5.27-1.46,6.06,6.06,0,0,0,2.16-1.47,6.21,6.21,0,0,0,1.37-2.23,4.75,4.75,0,0,0,0-2.51,4.87,4.87,0,0,0-1.22-2.18,4.12,4.12,0,0,0-4.52-.67,3.36,3.36,0,0,0-1.66,1.56,3.74,3.74,0,0,0-.36,2.21,5.18,5.18,0,0,0,2.27,3.58,7.5,7.5,0,0,0,3.91,1.1A11.64,11.64,0,0,0,192.9,81a13.54,13.54,0,0,0,5.55-3.38,14.23,14.23,0,0,0,3.92-7c.13-.7.22-1.07.22-1.07l-.18,1.08a14.48,14.48,0,0,1-1,3,14.27,14.27,0,0,1-2.86,4.07A13.71,13.71,0,0,1,193,81.15a12.25,12.25,0,0,1-3.8.58,7.61,7.61,0,0,1-4-1.11,5.34,5.34,0,0,1-2.36-3.7,3.86,3.86,0,0,1,.37-2.32A3.64,3.64,0,0,1,184.93,73a4.3,4.3,0,0,1,4.74.7,4.89,4.89,0,0,1,1.27,2.27,5,5,0,0,1,0,2.61,6.4,6.4,0,0,1-1.41,2.31,6.58,6.58,0,0,1-2.23,1.53,19,19,0,0,1-5.33,1.48,22.33,22.33,0,0,1-5.54,0,37.4,37.4,0,0,1-5.22-1.25,13.59,13.59,0,0,0-5.06-.67,7.73,7.73,0,0,0-3.28,1.12,7.82,7.82,0,0,0-2.47,2.42,8,8,0,0,0-1.18,3.26,7.77,7.77,0,0,0,.34,3.45A5.6,5.6,0,0,0,162,95.33a3.54,3.54,0,0,0,1.82.5,2.74,2.74,0,0,0,1.66-.66,3.55,3.55,0,0,0,.87-1.45,3.58,3.58,0,0,0,.08-1.69,3.93,3.93,0,0,0-1.64-2.48,6.88,6.88,0,0,0-4.72-1,14.58,14.58,0,0,0-3.06.69Z"/><path class="cls-6" d="M141.25,231.34,111.49,426.82,136.21,430,171.08,266l8.79,165.06,26.79-.47L202.22,231.8Z"/><path class="cls-6" d="M179.39,431.56v-.48L170.81,269.8,136.6,430.51l-25.68-3.26,29.9-196.36,61.89.46,4.46,199.78Zm-8-169.37,9,168.36,25.81-.45-4.42-197.8-60.1-.41L112.06,426.38l23.75,3Z"/><path class="cls-14" d="M198.7,430.27c-.15,0-.26-39.16-.26-87.46s.11-87.48.26-87.48.26,39.16.26,87.48S198.84,430.27,198.7,430.27Z"/><path class="cls-14" d="M130.77,429.56a3,3,0,0,1,.06-.42,8.69,8.69,0,0,1,.23-1.24c.21-1.11.52-2.71.91-4.75.84-4.15,2-10.1,3.51-17.45,3-14.73,7.25-35.05,12.13-57.45s9.47-42.66,12.87-57.29c1.71-7.3,3.1-13.21,4.07-17.33.49-2,.88-3.6,1.14-4.7.13-.52.24-.92.31-1.22a2.8,2.8,0,0,1,.13-.41,1.73,1.73,0,0,1-.08.42c-.08.28-.14.71-.25,1.23-.25,1.11-.6,2.7-1.05,4.73-.93,4.12-2.26,10-3.91,17.36C157.53,305.7,153,326,148.12,348.36s-9.19,42.71-12.28,57.41c-1.55,7.34-2.8,13.28-3.67,17.42-.43,2-.77,3.62-1,4.73l-.28,1.23A2.77,2.77,0,0,1,130.77,429.56Z"/><path class="cls-14" d="M179.87,265.82a4.33,4.33,0,0,1-1.13.15l-3.09.22c-2.61.17-6.22.35-10.18.74s-7.53.93-10.12,1.27l-3.07.39a4.86,4.86,0,0,1-1.14.07,5.29,5.29,0,0,1,1.11-.27c.71-.15,1.75-.34,3-.56,2.58-.43,6.15-1,10.13-1.42s7.6-.51,10.21-.59c1.31,0,2.37-.05,3.1-.05A5.19,5.19,0,0,1,179.87,265.82Z"/><path class="cls-14" d="M202.74,253.13a2.49,2.49,0,0,1-.77.19,12,12,0,0,1-2.16.1,12.55,12.55,0,0,1-11-7.93,10.73,10.73,0,0,1-.59-2.08c-.09-.5-.1-.78-.06-.79a23.41,23.41,0,0,0,1,2.72,13.57,13.57,0,0,0,4.32,5.32,13.37,13.37,0,0,0,6.41,2.39C201.61,253.23,202.72,253,202.74,253.13Z"/><path class="cls-14" d="M136.16,235.18l68.48-.22-3.75-45.19c-.41-10.34-.35-11.58-.61-21.12,0,0,9.72,11.75,17.37,20a15.58,15.58,0,0,0,18.08,3.47l40-27.91L268.24,145l-36.35,22.25c-1.67-1-15.82-21.23-25.6-31.08A34.6,34.6,0,0,0,182.7,126a171.37,171.37,0,0,0-22.08.89A23.11,23.11,0,0,0,140.05,148c-.71,8.45-.14,18.26-.14,34.93Z"/><path class="cls-6" d="M139.38,152.52v7.61c0,4.7.21,11.18.42,18.35s.24,13.67.06,18.36c-.08,2.35-.19,4.25-.3,5.56,0,.61-.09,1.11-.12,1.51a3.82,3.82,0,0,1-.06.52v-.52c0-.34.05-.91.08-1.51.09-1.31.17-3.21.23-5.56.14-4.7.08-11.19-.12-18.36s-.37-13.65-.36-18.35c0-2.35,0-4.25.07-5.57a13.33,13.33,0,0,1,.05-1.51C139.38,152.64,139.38,152.52,139.38,152.52Z"/><path class="cls-6" d="M230.39,173.76a4.18,4.18,0,0,1,.14-.94c.12-.58.29-1.38.5-2.25s.4-1.67.55-2.23a4,4,0,0,1,.29-.91,3.76,3.76,0,0,1-.15.94c-.11.58-.29,1.37-.49,2.25s-.4,1.66-.55,2.23A4.19,4.19,0,0,1,230.39,173.76Z"/><path class="cls-6" d="M234,174.32a31.69,31.69,0,0,1-.93-3.6,35.17,35.17,0,0,1-.73-3.65,31.69,31.69,0,0,1,.93,3.6A34.66,34.66,0,0,1,234,174.32Z"/><path class="cls-6" d="M202,170.34l-.37-.34-1-1c-.9-.88-2.2-2.17-3.76-3.82a61.82,61.82,0,0,1-5.1-6.09,35.21,35.21,0,0,1-4.65-8.54,23.92,23.92,0,0,1-1.53-9.58,19.79,19.79,0,0,1,1.72-7.73,11.3,11.3,0,0,1,3.37-4.14,9.74,9.74,0,0,1,1.21-.8l.45-.25a13.64,13.64,0,0,0-1.61,1.11,11.46,11.46,0,0,0-3.29,4.14A19.88,19.88,0,0,0,185.7,141a23.69,23.69,0,0,0,1.54,9.5,35.66,35.66,0,0,0,4.6,8.5,65.47,65.47,0,0,0,5.06,6.1c1.54,1.66,2.82,3,3.71,3.87l1,1C201.86,170.21,202,170.34,202,170.34Z"/><path class="cls-12" d="M157.46,151.75a11.86,11.86,0,0,1-2.35-2.55,12.33,12.33,0,0,1-1.94-2.86,12.07,12.07,0,0,1,2.35,2.54A11.69,11.69,0,0,1,157.46,151.75Z"/><path class="cls-12" d="M173,169.41a22.59,22.59,0,0,1-3.24,3.6,23.15,23.15,0,0,1-3.61,3.24A45.21,45.21,0,0,1,173,169.41Z"/><path class="cls-12" d="M188.08,194.76c-.14,0-.69-1.5-1.71-3.23s-2.08-3-2-3.07a7.39,7.39,0,0,1,2.42,2.81A7.56,7.56,0,0,1,188.08,194.76Z"/><path class="cls-12" d="M149,191.89a19.52,19.52,0,0,1-1.8-10.26c.16,0,.2,2.34.71,5.16S149.24,191.83,149,191.89Z"/><path class="cls-12" d="M169.77,203.05a12.64,12.64,0,0,1-.76-8.58c.15,0-.07,1.95.15,4.31S169.92,203,169.77,203.05Z"/><path class="cls-12" d="M161.57,219.26a27.42,27.42,0,0,1-4.7-2.63,28.68,28.68,0,0,1-4.43-3.07,27.5,27.5,0,0,1,4.71,2.63A28.12,28.12,0,0,1,161.57,219.26Z"/><path class="cls-12" d="M193.81,214.47c.07.14-2.25,1.29-4.94,3s-4.74,3.3-4.84,3.18a19.45,19.45,0,0,1,4.56-3.62A18.91,18.91,0,0,1,193.81,214.47Z"/><path class="cls-12" d="M153.24,232.8a25.58,25.58,0,0,1-5-.74,24.7,24.7,0,0,1-4.94-1.26,24.86,24.86,0,0,1,5,.75A24.85,24.85,0,0,1,153.24,232.8Z"/><path class="cls-12" d="M174.88,229.28a13,13,0,0,1-3.71-6.85c.14,0,.76,1.58,1.79,3.46A34.22,34.22,0,0,1,174.88,229.28Z"/><path class="cls-12" d="M199.24,231a7.66,7.66,0,0,1-1.56,2.27c-1,1.16-1.84,2-2,1.94a7.22,7.22,0,0,1,1.56-2.29C198.24,231.75,199.09,230.89,199.24,231Z"/><path class="cls-12" d="M154.71,162.23c.08.12-.81.86-2,1.64a6.66,6.66,0,0,1-2.29,1.22c-.08-.12.82-.86,2-1.65A6.24,6.24,0,0,1,154.71,162.23Z"/><path class="cls-12" d="M171.59,143.38a23,23,0,0,1-1.8-5.15,23.27,23.27,0,0,1-1-5.35,37.6,37.6,0,0,1,1.52,5.22A38,38,0,0,1,171.59,143.38Z"/><path class="cls-12" d="M187.8,160.54c-.07.14-1.53-.42-3.4-.77a33.08,33.08,0,0,1-3.44-.54A9.83,9.83,0,0,1,187.8,160.54Z"/><path class="cls-12" d="M198.94,146a7.73,7.73,0,0,1-3.82.13,7.61,7.61,0,0,1-3.6-1.27c.06-.14,1.64.45,3.68.75S198.92,145.81,198.94,146Z"/><path class="cls-12" d="M210.33,162.22a18.2,18.2,0,0,1,.28-5.51,17.56,17.56,0,0,1,1.48-5.32c.14,0-.49,2.42-1,5.4S210.49,162.23,210.33,162.22Z"/><path class="cls-12" d="M223.73,181.38a45.54,45.54,0,0,1-6.74-7A46,46,0,0,1,223.73,181.38Z"/><path class="cls-12" d="M234.87,179.89a26.49,26.49,0,0,1-4,6.25,28,28,0,0,1,4-6.25Z"/><path class="cls-12" d="M247.8,173.6a18.37,18.37,0,0,1-2.16-3.84,18.89,18.89,0,0,1-1.69-4.08,18.64,18.64,0,0,1,2.16,3.85A19.1,19.1,0,0,1,247.8,173.6Z"/><path class="cls-12" d="M265.4,166.32a41.37,41.37,0,0,1-9.1-1.62,42,42,0,0,1,9.1,1.62Z"/><path class="cls-12" d="M125.6,185.05a45.37,45.37,0,0,1,4.18-8.89,23.38,23.38,0,0,1-1.86,4.55A23.81,23.81,0,0,1,125.6,185.05Z"/><path class="cls-12" d="M134.93,168.59a17.74,17.74,0,0,1-3-3,18.47,18.47,0,0,1-2.65-3.33,17,17,0,0,1,3,3A17.8,17.8,0,0,1,134.93,168.59Z"/><path class="cls-12" d="M134.15,195c.09.11-.6.84-1.54,1.63s-1.79,1.33-1.89,1.22.61-.84,1.55-1.62S134.06,194.89,134.15,195Z"/><path class="cls-12" d="M137.3,151.1c.12.09-.3.8-.93,1.59S135.13,154,135,154s.31-.8.94-1.59S137.24,151,137.3,151.1Z"/><g class="cls-17"><path class="cls-18" d="M189.57,155.64c4.23,13.29,7.49,27.24,11.72,40.53l-1-27.52A66.26,66.26,0,0,1,189.57,155.64Z"/></g><path class="cls-6" d="M120.76,173a1.79,1.79,0,0,1,.13-.32l.4-.93c.36-.8.89-1.94,1.57-3.35,1.36-2.82,3.32-6.67,5.68-10.83s4.65-7.82,6.37-10.43c.86-1.31,1.57-2.36,2.07-3.07l.58-.82c.14-.19.21-.29.22-.28l-.18.3-.55.84-2,3.11c-1.69,2.63-4,6.3-6.31,10.45s-4.34,8-5.72,10.79l-1.63,3.33c-.17.34-.32.64-.44.9A2,2,0,0,1,120.76,173Z"/><path class="cls-6" d="M127.51,160.3a10.63,10.63,0,0,1-1.1.46,14.66,14.66,0,0,0-2.48,1.38,13.55,13.55,0,0,0-2.15,1.85c-.51.53-.79.88-.81.86s0-.1.16-.27.35-.47.54-.69a11.14,11.14,0,0,1,2.14-1.92,11.71,11.71,0,0,1,2.55-1.34,6.18,6.18,0,0,1,.83-.27A.87.87,0,0,1,127.51,160.3Z"/><path class="cls-12" d="M128.45,139.79a30.73,30.73,0,0,1-3,4.65,30.16,30.16,0,0,1-3.47,4.34,30.63,30.63,0,0,1,3-4.64A29.7,29.7,0,0,1,128.45,139.79Z"/><path class="cls-7" d="M135.67,123.53a2.45,2.45,0,0,0,2.54-1.2c.56-.84.82-1.84,1.31-2.72,1.49-2.61,4.87-3.75,6.23-6.43.19-.38.3-.9,0-1.16s-.75-.08-1.1.09l-8.9,4.46"/><path class="cls-8" d="M135.73,116.57a3.61,3.61,0,0,1,.91-.58c.6-.34,1.49-.81,2.59-1.39l3.86-2,1.13-.57a2,2,0,0,1,1.45-.35.83.83,0,0,1,.39.3.87.87,0,0,1,.15.47,1.73,1.73,0,0,1-.18.8,6.66,6.66,0,0,1-.8,1.23,40.7,40.7,0,0,1-4,3.53,7.69,7.69,0,0,0-1.45,1.71c-.36.61-.59,1.24-.87,1.81a3.48,3.48,0,0,1-2.11,2.09,1.15,1.15,0,0,1-.55.08,1.26,1.26,0,0,1-.54-.16,3.06,3.06,0,0,0,1-.13,3.6,3.6,0,0,0,1.12-.82,3.36,3.36,0,0,0,.7-1.18,18.26,18.26,0,0,1,.82-1.87,7.91,7.91,0,0,1,1.5-1.86,46.07,46.07,0,0,0,4-3.51,7.33,7.33,0,0,0,.73-1.11c.18-.37.18-.76,0-.81a2,2,0,0,0-1,.31l-1.13.56-3.92,1.9c-1.12.53-2,1-2.67,1.23A4.05,4.05,0,0,1,135.73,116.57Z"/><path class="cls-6" d="M414.85,391.28h-63.3V400h63.3Z"/><path class="cls-6" d="M415,400.08H351.44v-8.91H415Zm-63.29-.19h63.07v-8.48H351.66Z"/><path class="cls-6" d="M357.42,397.08,366.53,442h33.71l8.8-42Z"/><path class="cls-19" d="M357.42,437.77l4.86,6.68h41l5.79-6.68Z"/><path class="cls-6" d="M380.82,398.39c-.13,0-.29-20.82-.36-46.5s0-46.51.1-46.51.28,20.82.35,46.51S380.94,398.39,380.82,398.39Z"/><path class="cls-6" d="M394.92,346.28a2.84,2.84,0,0,1-.17.49l-.57,1.34c-.12.3-.26.62-.41,1l-.42,1.19c-.15.42-.32.87-.49,1.35s-.3,1-.47,1.55a63.94,63.94,0,0,0-1.77,7.75,95.24,95.24,0,0,0-1,9.69,132.4,132.4,0,0,0,.5,17.7c.21,2.26.41,4.09.56,5.35.07.59.12,1.07.16,1.45a4.34,4.34,0,0,1,0,.51,1.67,1.67,0,0,1-.12-.49c-.06-.38-.14-.86-.24-1.45-.21-1.25-.46-3.08-.7-5.34a117.34,117.34,0,0,1-.54-17.78,90.78,90.78,0,0,1,1-9.74,58.78,58.78,0,0,1,1.88-7.78c.17-.54.32-1.06.5-1.54l.52-1.35c.17-.42.32-.81.46-1.18s.32-.67.45-1l.65-1.31A2,2,0,0,1,394.92,346.28Z"/><path class="cls-6" d="M393.3,329.44a6,6,0,0,1-.2.69c-.17.48-.39,1.12-.66,1.93-.15.43-.31.89-.48,1.4l-.51,1.68c-.37,1.21-.8,2.57-1.18,4.12-.21.76-.42,1.57-.64,2.4s-.39,1.73-.59,2.64c-.44,1.81-.76,3.78-1.17,5.83-.7,4.14-1.31,8.71-1.74,13.53s-.57,9.44-.63,13.64,0,8,.21,11.14c.06,1.59.16,3,.24,4.28s.15,2.34.23,3.23.12,1.53.16,2a4.21,4.21,0,0,1,0,.71,4.24,4.24,0,0,1-.11-.7l-.24-2c-.11-.88-.22-2-.31-3.22s-.23-2.69-.31-4.28c-.21-3.17-.3-7-.31-11.17s.2-8.83.6-13.66,1.06-9.43,1.78-13.57c.42-2.06.75-4,1.21-5.85.22-.91.42-1.79.62-2.63s.46-1.64.67-2.41c.4-1.54.85-2.91,1.25-4.11l.54-1.67c.19-.5.37-1,.52-1.39l.74-1.9A5,5,0,0,1,393.3,329.44Z"/><path class="cls-6" d="M376.81,402.07v-.24a3.4,3.4,0,0,0-.06-.72c-.05-.66-.11-1.58-.19-2.75-.15-2.43-.36-5.89-.63-10.15-.55-8.56-1.35-20.39-2.79-33.4-.73-6.5-1.59-12.68-2.47-18.28-.48-2.79-.9-5.45-1.39-7.93s-.92-4.78-1.37-6.88-.88-4-1.25-5.65-.72-3.08-1-4.25-.5-2-.65-2.68c-.07-.29-.12-.52-.16-.7s-.05-.24,0-.24a1.55,1.55,0,0,1,.08.23,3.67,3.67,0,0,0,.2.69c.18.64.43,1.53.74,2.66s.71,2.57,1.1,4.23.88,3.54,1.32,5.65,1,4.39,1.42,6.87.94,5.14,1.43,7.94c.91,5.6,1.78,11.78,2.51,18.29,1.44,13,2.19,24.87,2.66,33.44.23,4.28.39,7.75.49,10.15,0,1.17.08,2.1.1,2.76v.72A.59.59,0,0,1,376.81,402.07Z"/><path class="cls-9" d="M380.3,315.39c-.27-2.95-3.25-5.18-6.22-5.21a9.72,9.72,0,0,0-7.53,4.09,23.68,23.68,0,0,0-3.63,8.06,54.53,54.53,0,0,0-2.23,21.43c.85,7.18,3.76,14.25,8.91,19.32.84.83,1.93,1.65,3.08,1.41a3.69,3.69,0,0,0,1.62-1A48,48,0,0,0,389.86,327c-.08-2.73-.44-5.57-1.95-7.84s-5-4.69-7.61-3.78"/><path class="cls-9" d="M358.18,291.76,354,299.32c-.1.17-.23.37-.43.39s-.38-.19-.5-.37q-5.52-8.47-11-16.94l2.54-1.44Z"/><g class="cls-20"><path class="cls-21" d="M358.18,291.76,354,299.32c-.1.17-.23.37-.43.39s-.38-.19-.5-.37q-5.52-8.47-11-16.94l2.54-1.44Z"/></g><path class="cls-9" d="M380.56,305.38l-37.63-22.21a1.76,1.76,0,0,1-.92-.92c-.15-.56.27-1.09.67-1.51a25.87,25.87,0,0,1,20.11-7.9A23,23,0,0,1,381,284.15C384.6,290.64,384.72,299.22,380.56,305.38Z"/><path class="cls-6" d="M348.35,276.09a1.61,1.61,0,0,1,.49-.07c.33,0,.81-.07,1.42-.06a27.81,27.81,0,0,1,5.23.41,30.54,30.54,0,0,1,24.35,22,29,29,0,0,1,.94,5.15,10.09,10.09,0,0,1,0,1.1,1.66,1.66,0,0,1-.29.82,6.06,6.06,0,0,0,.06-1.9,32.51,32.51,0,0,0-1.06-5.08,31.27,31.27,0,0,0-29.25-22.33C349,276.1,348.35,276.13,348.35,276.09Z"/><path class="cls-6" d="M375.46,290.05a9.59,9.59,0,0,1-1.9.87c-1.2.47-2.87,1.07-4.75,1.67s-3.59,1.07-4.84,1.37a10.32,10.32,0,0,1-2.05.4,9,9,0,0,1,2-.7l4.8-1.5,4.77-1.54A9.84,9.84,0,0,1,375.46,290.05Z"/><path class="cls-6" d="M369.54,274.13a26.63,26.63,0,0,1,.21,8.42,25.84,25.84,0,0,1-.22-4.21A25.73,25.73,0,0,1,369.54,274.13Z"/><path class="cls-6" d="M342.6,282.75a17.48,17.48,0,0,1,2.73-1c1.71-.53,4.09-1.19,6.75-1.83s5.07-1.13,6.84-1.44a16.24,16.24,0,0,1,2.87-.39,22.62,22.62,0,0,1-2.81.7c-1.74.39-4.15.93-6.8,1.56s-5,1.26-6.76,1.71A22.74,22.74,0,0,1,342.6,282.75Z"/><path class="cls-9" d="M364.68,309c-3.23-2.46-6.66-2.94-10.71-2.78a32.73,32.73,0,0,0-11.73,3c-6.35,2.78-12.31,6.87-16.1,12.67s-5.12,13.48-2.28,19.79a2.84,2.84,0,0,0,1.29,1.56,3,3,0,0,0,2.12-.16c7.22-2.35,14.49-4.73,21.12-8.42s12.68-8.81,16.24-15.51a13.52,13.52,0,0,0,1.71-5.15,6.24,6.24,0,0,0-.29-2.68A6.34,6.34,0,0,0,364.68,309Z"/><path class="cls-6" d="M364.75,308.23a4.71,4.71,0,0,1-.52.21l-1.51.52-1.1.36-1.28.5c-.91.37-2,.74-3.09,1.28l-1.77.81c-.61.28-1.22.63-1.87,1-1.31.64-2.63,1.46-4,2.3a63.37,63.37,0,0,0-15.92,14c-1,1.3-2,2.5-2.8,3.72-.41.6-.83,1.16-1.19,1.74s-.7,1.12-1,1.65a30.22,30.22,0,0,0-1.67,2.9c-.23.43-.46.83-.66,1.21l-.5,1c-.29.58-.52,1.06-.7,1.43a4.76,4.76,0,0,1-.28.49,3,3,0,0,1,.19-.53q.26-.57.63-1.47c.15-.32.3-.68.47-1.06s.4-.79.63-1.23c.46-.87.95-1.89,1.61-2.94l1-1.68c.35-.58.77-1.15,1.18-1.76.79-1.24,1.77-2.46,2.77-3.77a68.62,68.62,0,0,1,7.4-7.75,66.08,66.08,0,0,1,8.63-6.35c1.42-.83,2.76-1.64,4.09-2.27.65-.33,1.27-.67,1.89-1l1.79-.78c1.14-.53,2.21-.88,3.13-1.22.47-.17.9-.34,1.3-.47l1.11-.33,1.54-.44A2.15,2.15,0,0,1,364.75,308.23Z"/><path class="cls-6" d="M339.46,321.89a77.51,77.51,0,0,1-7.87,2.53,75.91,75.91,0,0,1-8,2.11,74.39,74.39,0,0,1,7.87-2.54A74.11,74.11,0,0,1,339.46,321.89Z"/><path class="cls-6" d="M339.14,339.29a12.57,12.57,0,0,1-.17-2.45c-.05-1.52-.05-3.61,0-5.93s.19-4.41.32-5.92a11.81,11.81,0,0,1,.31-2.44,14.43,14.43,0,0,1,0,2.46c-.06,1.66-.12,3.68-.19,5.91s-.1,4.26-.15,5.92A14.32,14.32,0,0,1,339.14,339.29Z"/><path class="cls-6" d="M354,331.71c-.12,0-.52-4.25-.88-9.51s-.56-9.54-.44-9.55.52,4.25.89,9.52S354.15,331.7,354,331.71Z"/><path class="cls-6" d="M335.5,312.24a14.16,14.16,0,0,1,2.52-.08c1.56,0,3.7.06,6.07.14s4.52.17,6.08.26a12.5,12.5,0,0,1,2.51.25,15.16,15.16,0,0,1-2.52.07c-1.56,0-3.71-.05-6.08-.13s-4.52-.18-6.07-.27A15.13,15.13,0,0,1,335.5,312.24Z"/><path class="cls-6" d="M371.24,364.07a2.12,2.12,0,0,1-.05-.5,11.62,11.62,0,0,0-.07-1.45c-.06-1.26-.07-3.08,0-5.33s.19-4.93.46-7.89.72-6.21,1.33-9.6,1.37-6.58,2.14-9.46,1.59-5.43,2.35-7.56,1.4-3.83,1.9-5l.57-1.34a1.8,1.8,0,0,1,.23-.46,2.13,2.13,0,0,1-.15.49l-.49,1.37c-.45,1.17-1,2.89-1.76,5s-1.48,4.7-2.25,7.57-1.48,6.06-2.1,9.43-1,6.61-1.35,9.56-.48,5.62-.56,7.86-.2,4.13-.2,5.36v1.45A2.09,2.09,0,0,1,371.24,364.07Z"/><path class="cls-6" d="M373.24,339.43a9,9,0,0,1-1.5,1.65c-1,1-2.35,2.27-3.93,3.66s-3,2.58-4.14,3.42a10.13,10.13,0,0,1-1.83,1.27,11.17,11.17,0,0,1,1.63-1.52l4-3.51,4-3.55A12.66,12.66,0,0,1,373.24,339.43Z"/><path class="cls-6" d="M385.12,349a17.35,17.35,0,0,1-1.6-2.22l-3.72-5.42c-1.44-2.05-2.75-3.89-3.8-5.38a19.11,19.11,0,0,1-1.52-2.27,16.84,16.84,0,0,1,1.78,2.08c1,1.33,2.44,3.19,3.91,5.31s2.73,4.07,3.61,5.51A15.93,15.93,0,0,1,385.12,349Z"/><path class="cls-6" d="M378.88,318.89c.06.11-3.89,2.77-8.84,6a104.24,104.24,0,0,1-9.08,5.57c-.08-.11,3.89-2.77,8.83-6A95.31,95.31,0,0,1,378.88,318.89Z"/><path class="cls-6" d="M390,330.89a149,149,0,0,1-11.65-11.38,74.7,74.7,0,0,1,6,5.53A70.94,70.94,0,0,1,390,330.89Z"/><path class="cls-9" d="M392.84,330.65l3.39-.28a16.78,16.78,0,0,0,6.86-2.1,25.82,25.82,0,0,1,3.2-1.6c4.2-1.69,8.89-1.39,13.4-1.62A55.65,55.65,0,0,0,441,319.6a2.1,2.1,0,0,0,.93-.84c.69-1.27-.6-2.4-1.72-3.09-5.72-3.53-11.54-7.1-18-8.85s-13.86-1.45-19.4,2.36c-6.5,4.47-8.86,13.66-10,21.47"/><path class="cls-6" d="M442,318.34a3,3,0,0,1-.57-.27l-1.61-.84c-1.4-.73-3.41-1.82-6-3a55.13,55.13,0,0,0-9.2-3.54,30.43,30.43,0,0,0-11.93-1,20.42,20.42,0,0,0-10.88,4.67,24.14,24.14,0,0,0-5.66,8q-1.38,3-2.46,6.2c-.26.71-.46,1.28-.61,1.71a3.32,3.32,0,0,1-.24.59,3.3,3.3,0,0,1,.15-.62c.14-.44.31-1,.53-1.74a53.65,53.65,0,0,1,2.34-6.27,23.94,23.94,0,0,1,5.68-8.13,20.59,20.59,0,0,1,11.09-4.81,30.18,30.18,0,0,1,12.1,1A51.72,51.72,0,0,1,434,314c2.53,1.26,4.52,2.38,5.89,3.17l1.57.91A3.23,3.23,0,0,1,442,318.34Z"/><path class="cls-6" d="M433.87,322.72c-.07.11-4.52-2.77-9.92-6.41s-9.74-6.69-9.67-6.8,4.51,2.77,9.92,6.42S433.94,322.62,433.87,322.72Z"/><path class="cls-6" d="M429.13,309.28a11.15,11.15,0,0,1-3.24.58,11.34,11.34,0,0,1-3.29,0,133.37,133.37,0,0,1,6.53-.58Z"/><path class="cls-6" d="M409.68,306.75a8.39,8.39,0,0,1-1.46,2.27,10,10,0,0,1-1.84,2.1,8.26,8.26,0,0,1,1.46-2.23A9.92,9.92,0,0,1,409.68,306.75Z"/><path class="cls-6" d="M413.66,325.34a12.28,12.28,0,0,1-2.14-1.16c-1.28-.78-3-1.92-4.87-3.26s-3.48-2.62-4.66-3.55a13.83,13.83,0,0,1-1.84-1.58,11.53,11.53,0,0,1,2,1.32l4.74,3.44c1.84,1.34,3.54,2.52,4.78,3.36A14.74,14.74,0,0,1,413.66,325.34Z"/><path class="cls-9" d="M397.84,345.08c-3.24-.85-7.1,2.3-7.77,5.58s.56,6.64,2,9.67a49.32,49.32,0,0,0,13.4,17.56A33.18,33.18,0,0,0,426,385.43c-1.37-6.36.36-13-.4-19.47a25.31,25.31,0,0,0-22.43-22.21c-2.07-.22-4.47-.55-5.29,1.36"/><path class="cls-6" d="M426,385.4a2.43,2.43,0,0,1-.46-.22,7.6,7.6,0,0,1-1.22-.81,12.67,12.67,0,0,1-3.19-4.28c-.52-1-1.1-2.09-1.66-3.29l-1.75-3.86a34.94,34.94,0,0,0-2.14-4.12,32.91,32.91,0,0,0-2.94-4c-2.22-2.61-4.6-4.86-6.67-7a46.13,46.13,0,0,1-5.07-6.09,22.58,22.58,0,0,1-2.49-4.74c-.2-.6-.35-1.06-.43-1.39a1.71,1.71,0,0,1-.1-.5s.22.66.7,1.83a24.58,24.58,0,0,0,2.58,4.62,49.53,49.53,0,0,0,5.11,6c2.07,2.13,4.47,4.38,6.71,7a32.33,32.33,0,0,1,3,4.07,37.37,37.37,0,0,1,2.14,4.18l1.71,3.87c.54,1.2,1.1,2.3,1.6,3.31a13,13,0,0,0,3,4.29C425.34,385.05,426,385.36,426,385.4Z"/><path class="cls-6" d="M409.24,380.11a11.33,11.33,0,0,1,.3-2.18c.26-1.33.67-3.16,1.23-5.16s1.17-3.77,1.65-5a10.21,10.21,0,0,1,.88-2,12.1,12.1,0,0,1-.58,2.12c-.4,1.29-1,3.08-1.51,5.06s-1,3.8-1.36,5.11A10.5,10.5,0,0,1,409.24,380.11Z"/><path class="cls-6" d="M425.34,364.5a13.71,13.71,0,0,1-2.28-.53c-1.39-.36-3.32-.86-5.47-1.34s-4.1-.86-5.52-1.13a12.74,12.74,0,0,1-2.28-.51,12.15,12.15,0,0,1,2.33.19c1.44.19,3.42.52,5.57,1a52.48,52.48,0,0,1,5.46,1.48A9.71,9.71,0,0,1,425.34,364.5Z"/><path class="cls-6" d="M397.18,369a14.16,14.16,0,0,1,.35-2.52c.29-1.55.74-3.67,1.35-6s1.25-4.41,1.75-5.89a14.32,14.32,0,0,1,.93-2.38,15.13,15.13,0,0,1-.62,2.47c-.43,1.51-1,3.59-1.63,5.91s-1.1,4.42-1.47,5.95A14.88,14.88,0,0,1,397.18,369Z"/><path class="cls-6" d="M417.91,350.89c0,.12-4.06-.2-9-.73s-9-1.06-9-1.18,4.06.2,9,.73S417.92,350.77,417.91,350.89Z"/><path class="cls-19" d="M415,399.94c0,.12-14.22.22-31.75.22s-31.76-.1-31.76-.22,14.22-.23,31.76-.23S415,399.81,415,399.94Z"/><path class="cls-19" d="M405.06,418.23c0,.13-9.58.23-21.4.23s-21.39-.1-21.39-.23,9.58-.22,21.39-.22S405.06,418.11,405.06,418.23Z"/><path class="cls-19" d="M404.68,420.89c0,.12-9.41.22-21,.22s-21-.1-21-.22,9.41-.23,21-.23S404.68,420.72,404.68,420.89Z"/><path class="cls-19" d="M405.43,416.08c0,.12-9.91.22-22.13.22s-22.13-.1-22.13-.22,9.91-.23,22.13-.23S405.43,416,405.43,416.08Z"/><path class="cls-6" d="M401.24,30.76c0,.15-6.71.23-15,.19s-15-.2-15-.34,6.71-.23,15-.19S401.24,30.62,401.24,30.76Z"/><path class="cls-6" d="M386.35,45.67c-.14,0-.32-6.7-.41-15s0-15,.11-15,.33,6.7.41,15S386.5,45.67,386.35,45.67Z"/><path class="cls-6" d="M417,254.57a100.73,100.73,0,0,1-9.2-4.4,98.89,98.89,0,0,1-9-4.88c.06-.12,4.18,1.85,9.2,4.41S417.07,254.45,417,254.57Z"/><path class="cls-6" d="M403.42,259.09a95.86,95.86,0,0,1,4.27-9.27,97.54,97.54,0,0,1,4.73-9,99.49,99.49,0,0,1-4.27,9.27A98.84,98.84,0,0,1,403.42,259.09Z"/><path class="cls-6" d="M58,184.16c0,.14-4.74,2.17-10.69,4.54s-10.83,4.19-10.88,4.06,4.73-2.17,10.69-4.54S58,184,58,184.16Z"/><path class="cls-6" d="M47,177.66a7.63,7.63,0,0,0-.53-.75,3.73,3.73,0,0,0-2-1.3,3.52,3.52,0,0,0-1.93,0,3.54,3.54,0,0,0-2.27,4.7,3.5,3.5,0,0,0,3,2.21,3.53,3.53,0,0,0,3.32-1.66,3.77,3.77,0,0,0,.56-2.33,5.64,5.64,0,0,0-.13-.91,1.89,1.89,0,0,1,.33.89,3.76,3.76,0,0,1-.44,2.54,4,4,0,1,1-6-5,3.89,3.89,0,0,1,1.75-.89,4,4,0,0,1,2,.08,3.67,3.67,0,0,1,2.07,1.53A2,2,0,0,1,47,177.66Z"/><path class="cls-6" d="M54.5,196.47s-.17-.29-.53-.75a3.73,3.73,0,0,0-2-1.3,3.57,3.57,0,0,0-1.75,0,3.53,3.53,0,0,0-1.55.82,3.47,3.47,0,0,0-1.07,1.82,3.5,3.5,0,0,0,1.49,3.74,3.57,3.57,0,0,0,2,.59,3.53,3.53,0,0,0,1.71-.46,3.57,3.57,0,0,0,1.29-1.21,3.84,3.84,0,0,0,.56-2.33,7.5,7.5,0,0,0-.13-.91,2,2,0,0,1,.33.88,3.73,3.73,0,0,1-.45,2.55,4,4,0,0,1-1.37,1.42,3.88,3.88,0,0,1-1.88.58,4,4,0,0,1-2.33-.65,4,4,0,0,1-.46-6.35,3.91,3.91,0,0,1,1.76-.88,3.83,3.83,0,0,1,2,.06,3.76,3.76,0,0,1,2.07,1.54A2,2,0,0,1,54.5,196.47Z"/><path class="cls-6" d="M114,80.21s.11.27.3.79l.83,2.31c.72,2,1.78,5,3.13,8.88l.07.18h-.2l-12.84-1.78h.13a33.41,33.41,0,0,1-20.2,7.14c-.82,0-1.65-.07-2.49-.09l-1.25-.06a9.1,9.1,0,0,1-1.26-.18,32,32,0,0,1-10.11-3,34.53,34.53,0,0,1-9.17-6.49,33.63,33.63,0,0,1,5.35-52A32.68,32.68,0,0,1,76,31.61l1.27-.33.63-.16.64-.1,2.56-.38c.85-.08,1.7-.1,2.55-.15a17.66,17.66,0,0,1,2.52,0,18.56,18.56,0,0,1,2.48.18l2.43.38c.8.13,1.58.38,2.36.57l1.16.3c.38.12.75.27,1.12.4a33.51,33.51,0,0,1,22.43,29.57A32.53,32.53,0,0,1,115,78.16c-.33.67-.59,1.17-.77,1.49s-.3.5-.3.5.07-.17.24-.51.43-.85.73-1.52A33.73,33.73,0,0,0,117,72a31.93,31.93,0,0,0,.82-10.12A33.11,33.11,0,0,0,95.59,32.72c-.37-.13-.73-.27-1.11-.39L93.34,32c-.77-.18-1.54-.43-2.33-.55l-2.4-.37c-.8-.14-1.62-.11-2.45-.17a14.67,14.67,0,0,0-2.48,0c-.83,0-1.67.07-2.51.14l-2.52.39-.63.1-.63.16-1.25.32a31.92,31.92,0,0,0-9.59,4.28,33.11,33.11,0,0,0,3.69,57.56,31.26,31.26,0,0,0,10,3c.41.06.82.14,1.24.18l1.24.06c.83,0,1.64.12,2.45.1a31.22,31.22,0,0,0,4.73-.39,33.08,33.08,0,0,0,15.27-6.58h.07L118.1,92.1l-.13.15c-1.31-3.87-2.32-6.88-3-9l-.77-2.31A7.2,7.2,0,0,1,114,80.21Z"/><path class="cls-9" d="M83,71.83a1.27,1.27,0,0,1-.55-.5,1.28,1.28,0,0,1-.21-.71V64a1.31,1.31,0,0,1,.14-.59,1.38,1.38,0,0,1,.39-.47,1.49,1.49,0,0,1,.56-.25,1.57,1.57,0,0,1,.61,0,4.14,4.14,0,0,0,1.68.08,4.08,4.08,0,0,0,1.58-.58,3.77,3.77,0,0,0,1.13-1A3.69,3.69,0,0,0,89,59.8a3.89,3.89,0,0,0,0-1.52,4,4,0,0,0-.63-1.39,4.31,4.31,0,0,0-1.19-1.18,4.26,4.26,0,0,0-1.56-.64,5,5,0,0,0-3.21.78,4.92,4.92,0,0,0-2,2.61,1.33,1.33,0,0,1-.67.73,1.36,1.36,0,0,1-1,.07,1.32,1.32,0,0,1-.76-.63,1.29,1.29,0,0,1-.13-1,7.71,7.71,0,0,1,8.21-5.22,6.94,6.94,0,0,1,4.53,2.94,6.54,6.54,0,0,1,1.1,5,6.49,6.49,0,0,1-3,4.11,7,7,0,0,1-3.68,1v5.14a1.33,1.33,0,0,1-.39.94,1.3,1.3,0,0,1-.94.4A1.34,1.34,0,0,1,83,71.83Z"/><path class="cls-9" d="M84.81,74.63a1.06,1.06,0,0,1-.17.62,1.07,1.07,0,0,1-1.12.49,1.06,1.06,0,0,1-.57-.28,1,1,0,0,1-.31-.56,1.08,1.08,0,0,1,0-.64,1,1,0,0,1,.39-.5,1,1,0,0,1,.61-.2,1.13,1.13,0,0,1,.78.31A1.09,1.09,0,0,1,84.81,74.63Z"/></g></g></svg>