<svg xmlns="http://www.w3.org/2000/svg" viewBox="0 0 325.21 114.79"><defs><style>.cls-1{fill:#fff;}.cls-2{fill:#0af;}</style></defs><title>Logo_Dark</title><g id="Capa_2" data-name="Capa 2"><g id="Capa_1-2" data-name="Capa 1"><path class="cls-1" d="M161.38,46.39a19.27,19.27,0,0,1-6.61-1.19,18.25,18.25,0,0,1-5.94-3.58l4.3-5.12a17.15,17.15,0,0,0,4.1,2.49,11.64,11.64,0,0,0,4.66,1,6.08,6.08,0,0,0,3.54-.81,2.47,2.47,0,0,0,1.11-2.08,2.7,2.7,0,0,0-.35-1.44,3.43,3.43,0,0,0-1-1,9.29,9.29,0,0,0-1.62-.87l-2.13-.91L157.18,31a14.63,14.63,0,0,1-2.66-1.32,10.39,10.39,0,0,1-2.25-1.9A8.5,8.5,0,0,1,150.14,22a8.58,8.58,0,0,1,.89-3.83A9.59,9.59,0,0,1,153.51,15a11.65,11.65,0,0,1,3.82-2.11,15.32,15.32,0,0,1,4.91-.76,16.06,16.06,0,0,1,11,4.37l-3.8,4.71a15.81,15.81,0,0,0-3.44-2,11.16,11.16,0,0,0-4.15-.69,5.42,5.42,0,0,0-3,.76,2.53,2.53,0,0,0-1.14,2.24,2.44,2.44,0,0,0,1.5,2.25,28.77,28.77,0,0,0,3.92,1.65l4,1.72a12.76,12.76,0,0,1,5.19,3.35,8.13,8.13,0,0,1,1.9,5.63,9.27,9.27,0,0,1-.86,3.93,9.69,9.69,0,0,1-2.48,3.24,12.24,12.24,0,0,1-4,2.23,16.41,16.41,0,0,1-5.47.84"/><path class="cls-1" d="M177.12,45.78,187.4,12.72h8.91l10.28,33.06h-7.9l-2-7.86h-10l-2,7.86ZM189,29.05l-.76,3h6.94l-.76-3q-.66-2.49-1.37-5.25t-1.26-5.4h-.21q-.6,2.64-1.26,5.4T189,29.05"/><path class="cls-1" d="M210,45.78V12.72h7.8L221,24.44,222.13,29h.2l1.12-4.56,3.24-11.72h7.79V45.78h-6.27V35.54c0-.91,0-2.06.1-3.45s.15-2.8.25-4.26.21-2.86.33-4.23.21-2.49.28-3.37H229l-2.53,8.82L224,37h-3.64l-2.58-8-2.38-8.82h-.15c.1.88.2,2,.3,3.37s.2,2.78.3,4.23.19,2.88.26,4.26.1,2.54.1,3.45V45.78Z"/><path class="cls-1" d="M241.22,45.78V12.72h11.69a22.51,22.51,0,0,1,5,.54,11.12,11.12,0,0,1,4.1,1.77,8.76,8.76,0,0,1,2.76,3.3,11.37,11.37,0,0,1,1,5,11.36,11.36,0,0,1-1,5,9.6,9.6,0,0,1-2.81,3.5,11.93,11.93,0,0,1-4.1,2,18.07,18.07,0,0,1-5,.66h-4.25v11.2Zm7.44-17.14h3.8c4,0,6.07-1.75,6.07-5.27A4.12,4.12,0,0,0,257,19.72a8,8,0,0,0-4.53-1.06h-3.8Z"/><polygon class="cls-1" points="273.21 45.78 273.21 12.72 280.65 12.72 280.65 39.49 295.34 39.49 295.34 45.78 273.21 45.78"/><polygon class="cls-1" points="302.83 45.78 302.83 12.72 324.7 12.72 324.7 19.01 310.32 19.01 310.32 25.65 322.52 25.65 322.52 31.89 310.32 31.89 310.32 39.49 325.21 39.49 325.21 45.78 302.83 45.78"/><path class="cls-2" d="M149.84,96V63H159a20.93,20.93,0,0,1,6.53,1,12.88,12.88,0,0,1,5,3,13.3,13.3,0,0,1,3.22,5.1,21.25,21.25,0,0,1,1.14,7.35,21.94,21.94,0,0,1-1.12,7.4,13.61,13.61,0,0,1-3.16,5.2A13.07,13.07,0,0,1,165.68,95a18.66,18.66,0,0,1-6.27,1Zm7.49-6h1.22a10.59,10.59,0,0,0,3.51-.56,6.56,6.56,0,0,0,2.74-1.8,8.51,8.51,0,0,0,1.77-3.27,17.15,17.15,0,0,0,.63-5,16.74,16.74,0,0,0-.63-5,8,8,0,0,0-1.77-3.19,6.45,6.45,0,0,0-2.74-1.7,11.45,11.45,0,0,0-3.51-.51h-1.22Z"/><path class="cls-2" d="M177.12,96,187.4,63h8.91L206.59,96h-7.9l-2-7.86h-10l-2,7.86ZM189,79.28l-.76,3h6.94l-.76-3q-.66-2.49-1.37-5.25t-1.26-5.4h-.21q-.6,2.64-1.26,5.4T189,79.28"/><polygon class="cls-2" points="218.49 96.01 218.49 69.24 208.61 69.24 208.61 62.95 235.85 62.95 235.85 69.24 225.98 69.24 225.98 96.01 218.49 96.01"/><path class="cls-2" d="M237.88,96,248.15,63h8.91L267.34,96h-7.9l-2-7.86h-10l-2,7.86Zm11.89-16.73-.76,3H256l-.76-3c-.44-1.66-.89-3.41-1.37-5.25s-.89-3.64-1.26-5.4h-.21q-.6,2.64-1.26,5.4t-1.32,5.25"/><path class="cls-1" d="M105.75,19.85,26.86,50V29.61L106.1,0Q105.92,9.93,105.75,19.85Z"/><path class="cls-1" d="M78.89,62.09,0,92.22V71.84L79.24,42.23Q79.06,52.16,78.89,62.09Z"/><path class="cls-2" d="M53.37,104.43l-26.6,10.36q.23-10.11.44-20.21l26-9.57Q53.29,94.72,53.37,104.43Z"/></g></g></svg>